<svg width="24" height="24" viewBox="0 0 24 24" fill="none" xmlns="http://www.w3.org/2000/svg">
<path d="M16.0494 17.3037L16.0498 17.3036C16.7446 16.8998 17.15 15.985 17.15 14.67V9.33002C17.15 8.02496 16.7445 7.10055 16.0403 6.69677C15.3356 6.29279 14.3371 6.40409 13.2 7.05664L16.0494 17.3037ZM16.0494 17.3037C15.7775 17.4632 15.4556 17.54 15.1 17.54C14.5426 17.54 13.8998 17.3475 13.2 16.9434L13.2 16.9434L8.56996 14.2734L8.56978 14.2733C7.43309 13.6209 6.84 12.8076 6.84 12C6.84 11.1924 7.43309 10.3791 8.56978 9.72675L8.56996 9.72664L13.1998 7.05675L16.0494 17.3037ZM16.89 5.21341L16.89 5.2134C16.3536 4.90398 15.7462 4.75002 15.1 4.75002C14.2387 4.75002 13.3015 5.02673 12.3497 5.58356C12.3497 5.58361 12.3496 5.58366 12.3495 5.5837L7.72004 8.25339C6.07065 9.20457 5.14 10.5327 5.14 12C5.14 13.4674 6.07065 14.7955 7.72004 15.7466L7.77 15.66L7.72004 15.7466L12.35 18.4166L12.3503 18.4168C14.0093 19.3677 15.6189 19.5103 16.89 18.7766C18.1609 18.043 18.85 16.5726 18.85 14.67V9.32001C18.85 7.41744 18.1609 5.94699 16.89 5.21341Z" fill="#292D32" stroke="#292D32" stroke-width="0.2"/>
</svg>
