<svg width="24" height="24" viewBox="0 0 24 24" fill="none" xmlns="http://www.w3.org/2000/svg">
<path d="M15 22.6H9C6.30222 22.6 4.41273 22.0231 3.19482 20.8052C1.9769 19.5873 1.4 17.6978 1.4 15V9C1.4 6.30222 1.9769 4.41273 3.19482 3.19482C4.41273 1.9769 6.30222 1.4 9 1.4H15C17.6978 1.4 19.5873 1.9769 20.8052 3.19482C22.0231 4.41273 22.6 6.30222 22.6 9V15C22.6 17.6978 22.0231 19.5873 20.8052 20.8052C19.5873 22.0231 17.6978 22.6 15 22.6ZM9 2.6C6.68442 2.6 5.07005 3.01032 4.04018 4.04018C3.01032 5.07005 2.6 6.68442 2.6 9V15C2.6 17.3156 3.01032 18.93 4.04018 19.9598C5.07005 20.9897 6.68442 21.4 9 21.4H15C17.3156 21.4 18.93 20.9897 19.9598 19.9598C20.9897 18.93 21.4 17.3156 21.4 15V9C21.4 6.68442 20.9897 5.07005 19.9598 4.04018C18.93 3.01032 17.3156 2.6 15 2.6H9Z" fill="#292D32" stroke="black" stroke-width="0.3"/>
<path d="M9 10.6C7.56284 10.6 6.4 9.43716 6.4 8C6.4 6.56284 7.56284 5.4 9 5.4C10.4372 5.4 11.6 6.56284 11.6 8C11.6 9.43716 10.4372 10.6 9 10.6ZM9 6.6C8.22716 6.6 7.6 7.22716 7.6 8C7.6 8.77284 8.22716 9.4 9 9.4C9.77284 9.4 10.4 8.77284 10.4 8C10.4 7.22716 9.77284 6.6 9 6.6Z" fill="#292D32" stroke="black" stroke-width="0.3"/>
<path d="M2.17426 19.286L2.17483 19.2868C2.28584 19.4533 2.47804 19.55 2.67002 19.55C2.78186 19.55 2.90357 19.518 3.009 19.4537L7.93514 16.1463C7.93536 16.1462 7.93558 16.146 7.9358 16.1459C8.501 15.7585 9.33509 15.8016 9.84702 16.2356L9.84905 16.2373L9.84903 16.2373L10.1781 16.5265C11.1924 17.3883 12.7791 17.3874 13.7823 16.5262L13.7823 16.5262L17.9422 12.9563L2.17426 19.286ZM2.17426 19.286C1.99092 19.0149 2.06257 18.6392 2.34239 18.4554L2.3424 18.4554L2.34363 18.4545L7.27363 15.1445L7.27402 15.1443C8.29766 14.4524 9.71307 14.5376 10.642 15.3236M2.17426 19.286L10.642 15.3236M10.642 15.3236L10.971 15.6127L10.971 15.6127L10.9722 15.6137C11.2536 15.8557 11.6275 15.9725 11.9938 15.9725C12.3597 15.9725 12.7315 15.8559 13.0083 15.6133C13.0085 15.6131 13.0087 15.6129 13.009 15.6127L17.1677 12.0438L17.1677 12.0438C18.1711 11.1824 19.7582 11.1817 20.7724 12.0439C20.7726 12.044 20.7727 12.0441 20.7728 12.0443L22.4015 13.4431C22.4017 13.4432 22.4018 13.4434 22.402 13.4435C22.6498 13.6598 22.682 14.0355 22.4661 14.2924C22.2497 14.54 21.874 14.5719 21.6172 14.3558C21.6171 14.3556 21.6169 14.3555 21.6167 14.3554L19.9878 12.9563L10.642 15.3236ZM19.9877 12.9562C19.4315 12.4779 18.4986 12.4779 17.9423 12.9562L19.9877 12.9562Z" fill="#292D32" stroke="black" stroke-width="0.3"/>
</svg>
