<svg width="24" height="24" viewBox="0 0 24 24" fill="none" xmlns="http://www.w3.org/2000/svg">
<path d="M18.3799 3.2034H18.3799C17.7036 2.814 16.9362 2.62 16.13 2.62C15.0285 2.62 13.8316 2.9768 12.6105 3.6731L12.61 3.6734L6.44007 7.2334H6.43998C4.32098 8.4544 3.13997 10.1424 3.13997 11.99C3.13997 13.8379 4.33117 15.5258 6.43987 16.7466L6.43998 16.7466L12.61 20.3066L12.6101 20.3067C14.7289 21.5275 16.7786 21.7105 18.3799 20.7866C19.9812 19.8628 20.85 18.002 20.85 15.56V8.43C20.85 5.9981 19.9813 4.1272 18.3799 3.2034ZM17.5302 19.3233L17.5297 19.3236C17.1167 19.5637 16.6544 19.68 16.13 19.68C15.333 19.68 14.4303 19.3978 13.4598 18.8433C13.4597 18.8433 13.4597 18.8432 13.4596 18.8432L7.28998 15.2834C5.69398 14.3615 4.83998 13.1983 4.83998 12C4.83998 10.8017 5.69398 9.6385 7.28998 8.7166L13.46 5.1566C15.0563 4.2345 16.4947 4.0727 17.5296 4.6764C18.5655 5.2807 19.15 6.5967 19.15 8.44V15.56C19.15 17.4039 18.5652 18.7291 17.5302 19.3233Z" fill="#292D32" stroke="#292D32" stroke-width="0.2"/>
</svg>
