<svg width="24" height="24" viewBox="0 0 24 24" fill="none" xmlns="http://www.w3.org/2000/svg">
<path d="M12.5 22.2392C7.26 22.2392 3 17.9792 3 12.7392C3 7.4992 7.26 3.2392 12.5 3.2392C17.74 3.2392 22 7.4992 22 12.7392C22 17.9792 17.74 22.2392 12.5 22.2392ZM12.5 7.00226C11.9 7.00226 11.9 6.99994 11.9 9.99994C11.9036 12.9999 11.9 12.9999 12.5 12.9999C13.1 12.9999 13.1 12.9999 13.1 9.99994C13.1 6.99994 13.1 7.00226 12.5 7.00226Z" fill="#292D32"/>
<path d="M15.29 1.5H8.81C8.3672 1.5 8 1.16 8 0.75C8 0.34 8.3672 0 8.81 0H15.29C15.7328 0 16.1 0.34 16.1 0.75C16.1 1.16 15.7328 1.5 15.29 1.5Z" fill="#292D32"/>
</svg>
