<svg width="24" height="24" viewBox="0 0 24 24" fill="none" xmlns="http://www.w3.org/2000/svg">
<path d="M12 22.7499C6.07 22.7499 1.25 17.9299 1.25 11.9999C1.25 6.06994 6.07 1.24994 12 1.24994C17.93 1.24994 22.75 6.06994 22.75 11.9999C22.75 17.9299 17.93 22.7499 12 22.7499ZM12 2.74994C6.9 2.74994 2.75 6.89994 2.75 11.9999C2.75 17.0999 6.9 21.2499 12 21.2499C17.1 21.2499 21.25 17.0999 21.25 11.9999C21.25 6.89994 17.1 2.74994 12 2.74994Z" fill="#292D32"/>
<path d="M15.7101 15.9299C15.5801 15.9299 15.4501 15.8999 15.3301 15.8199L12.2301 13.9699C11.4601 13.5099 10.8901 12.4999 10.8901 11.6099V7.50995C10.8901 7.09995 11.2301 6.75995 11.6401 6.75995C12.0501 6.75995 12.3901 7.09995 12.3901 7.50995V11.6099C12.3901 11.9699 12.6901 12.4999 13.0001 12.6799L16.1001 14.5299C16.4601 14.7399 16.5701 15.1999 16.3601 15.5599C16.2101 15.7999 15.9601 15.9299 15.7101 15.9299Z" fill="#292D32"/>
</svg>
