<svg width="24" height="24" viewBox="0 0 24 24" fill="none" xmlns="http://www.w3.org/2000/svg">
<path d="M8.03158 1.40766L8.03123 1.40781C3.59227 3.27419 0.837173 7.72376 1.18024 12.4871C1.5739 18.0386 6.29552 22.5873 11.9448 22.8399C12.1175 22.85 12.2897 22.85 12.4586 22.85H12.46C16.1013 22.85 19.5014 21.1453 21.6405 18.2193C22.0498 17.6666 22.199 17.1952 22.2137 16.8113C22.2283 16.4274 22.1081 16.1405 21.9951 15.9574C21.8816 15.7737 21.6773 15.5407 21.3266 15.386C20.976 15.2314 20.4876 15.1588 19.8123 15.2816C19.1989 15.3904 18.5664 15.4397 17.9246 15.4101L17.924 15.4101C13.4862 15.2322 9.84975 11.5148 9.82999 7.13954L9.82999 7.13913C9.82011 5.99316 10.0473 4.87706 10.5017 3.82993C10.7681 3.22008 10.8052 2.7394 10.7331 2.36961C10.6612 2.0005 10.4822 1.75101 10.3313 1.5999C10.1798 1.44313 9.92746 1.259 9.54836 1.18318C9.16881 1.10727 8.67097 1.14168 8.03158 1.40766Z" fill="#292D32" stroke="#292D32" stroke-width="0.2"/>
</svg>
