<svg width="32" height="32" viewBox="0 0 32 32" fill="none" xmlns="http://www.w3.org/2000/svg">
<path d="M16.2159 16.3333C16.2159 17.0697 16.8128 17.6667 17.5492 17.6667C18.2856 17.6667 18.8825 17.0697 18.8825 16.3333C18.8825 15.597 18.2856 15 17.5492 15C16.8128 15 16.2159 15.597 16.2159 16.3333Z" fill="black"/>
<path d="M12.2159 17.6667C11.4795 17.6667 10.8825 17.0697 10.8825 16.3333C10.8825 15.597 11.4795 15 12.2159 15C12.9523 15 13.5492 15.597 13.5492 16.3333C13.5492 17.0697 12.9523 17.6667 12.2159 17.6667Z" fill="black"/>
<path d="M21.5492 16.3333C21.5492 17.0697 22.1462 17.6667 22.8825 17.6667C23.6189 17.6667 24.2159 17.0697 24.2159 16.3333C24.2159 15.597 23.6189 15 22.8825 15C22.1462 15 21.5492 15.597 21.5492 16.3333Z" fill="black"/>
<path fill-rule="evenodd" clip-rule="evenodd" d="M26.8825 7C28.3553 7 29.5492 8.19391 29.5492 9.66667V23C29.5492 24.4728 28.3553 25.6667 26.8825 25.6667L8.5296 25.6667C7.05684 25.6667 5.86293 24.4728 5.86293 23V21.2332C5.86293 20.4509 5.51941 19.708 4.92333 19.2013L3.93961 18.3652C2.6868 17.3003 2.6868 15.3664 3.93961 14.3015L4.92333 13.4653C5.51941 12.9587 5.86293 12.2158 5.86293 11.4335L5.86293 9.66667C5.86293 8.19391 7.05684 7 8.5296 7H26.8825ZM26.8825 9.66667V23L8.5296 23V21.2332C8.5296 19.6685 7.84255 18.1828 6.65039 17.1695L5.66667 16.3333L6.65039 15.4972C7.84254 14.4838 8.5296 12.9981 8.5296 11.4335V9.66667L26.8825 9.66667Z" fill="black"/>
</svg>
