<svg width="24" height="24" viewBox="0 0 24 24" fill="none" xmlns="http://www.w3.org/2000/svg">
<path d="M15 22.6H9C6.80017 22.6 5.41794 22.2633 4.57732 21.4227C3.73669 20.5821 3.4 19.1998 3.4 17V7C3.4 4.80017 3.73669 3.41794 4.57732 2.57732C5.41794 1.73669 6.80017 1.4 9 1.4H15C17.1998 1.4 18.5821 1.73669 19.4227 2.57732C20.2633 3.41794 20.6 4.80017 20.6 7V17C20.6 19.1998 20.2633 20.5821 19.4227 21.4227C18.5821 22.2633 17.1998 22.6 15 22.6ZM9 2.6C8.10235 2.6 7.37659 2.64242 6.79464 2.76527C6.21103 2.88846 5.76118 3.09476 5.42633 3.43029C5.09149 3.76581 4.8862 4.21596 4.76382 4.79903C4.64179 5.38045 4.6 6.10491 4.6 7V17C4.6 17.8951 4.64179 18.6196 4.76382 19.201C4.8862 19.784 5.09149 20.2342 5.42633 20.5697C5.76118 20.9052 6.21103 21.1115 6.79464 21.2347C7.37659 21.3576 8.10235 21.4 9 21.4H15C15.8976 21.4 16.6234 21.3576 17.2054 21.2347C17.789 21.1115 18.2388 20.9052 18.5737 20.5697C18.9085 20.2342 19.1138 19.784 19.2362 19.201C19.3582 18.6196 19.4 17.8951 19.4 17V7C19.4 6.10491 19.3582 5.38045 19.2362 4.79903C19.1138 4.21596 18.9085 3.76581 18.5737 3.43029C18.2388 3.09476 17.789 2.88846 17.2054 2.76527C16.6234 2.64242 15.8976 2.6 15 2.6H9Z" fill="#292D32" stroke="black" stroke-width="0.3"/>
<path d="M14 6.1H10C9.67284 6.1 9.4 5.82716 9.4 5.5C9.4 5.17284 9.67284 4.9 10 4.9H14C14.3272 4.9 14.6 5.17284 14.6 5.5C14.6 5.82716 14.3272 6.1 14 6.1Z" fill="#292D32" stroke="black" stroke-width="0.3"/>
<path d="M12.0002 19.71C10.813 19.71 9.8502 18.7472 9.8502 17.56C9.8502 16.3729 10.813 15.41 12.0002 15.41C13.1874 15.41 14.1502 16.3729 14.1502 17.56C14.1502 18.7472 13.1874 19.71 12.0002 19.71ZM12.0002 16.6C11.4774 16.6 11.0502 17.0272 11.0502 17.55C11.0502 18.0729 11.4774 18.5 12.0002 18.5C12.523 18.5 12.9502 18.0729 12.9502 17.55C12.9502 17.0272 12.523 16.6 12.0002 16.6Z" fill="#292D32" stroke="black" stroke-width="0.3"/>
</svg>
