<svg width="24" height="24" viewBox="0 0 24 24" fill="none" xmlns="http://www.w3.org/2000/svg">
<path d="M11.7104 13.6235L11.7105 13.6234L11.7054 13.6205C11.4161 13.4516 11.3213 13.0825 11.48 12.8046C11.4801 12.8045 11.4801 12.8045 11.4801 12.8044L12.3299 11.3247L12.459 11.1H12.1999H11.3599C10.9053 11.1 10.5486 10.9019 10.3592 10.5841C10.1714 10.2589 10.1815 9.85692 10.4101 9.45446C10.4102 9.45435 10.4102 9.45424 10.4103 9.45413L11.4794 7.5956C11.4795 7.59548 11.4796 7.59535 11.4797 7.59522C11.6485 7.3063 12.0171 7.21161 12.2949 7.36993C12.5838 7.53892 12.6784 7.9078 12.5196 8.1856L12.5196 8.1857L11.6696 9.6757L11.5416 9.90002H11.7999H12.6399C13.0944 9.90002 13.4512 10.0982 13.6405 10.4159C13.8284 10.7411 13.8182 11.1431 13.5896 11.5456C13.5896 11.5457 13.5895 11.5458 13.5894 11.5459L12.5203 13.4044C12.5202 13.4046 12.5201 13.4047 12.5201 13.4048C12.4086 13.5957 12.2097 13.7 11.9999 13.7C11.8921 13.7 11.7915 13.6751 11.7104 13.6235Z" fill="#292D32" stroke="black" stroke-width="0.3"/>
<path d="M7.70004 18.1848L7.70012 18.1848V18.18V17.29V17.2097L7.63332 17.1652C5.15034 15.5099 3.52012 12.6344 3.52012 9.90999C3.52012 7.3255 4.67947 4.90843 6.69417 3.28684C8.70793 1.66601 11.3512 1.05604 13.9378 1.62647L13.9379 1.62648C16.3945 2.16694 18.5164 3.80827 19.6158 6.0167C21.7452 10.305 19.6982 14.958 16.4063 17.1756L16.3401 17.2202V17.3V18.05H16.34L16.3402 18.0552C16.3502 18.3444 16.3547 18.8132 15.9943 19.1837C15.7192 19.449 15.321 19.6 14.7701 19.6H9.26012C8.82074 19.6 8.32022 19.5467 7.99759 19.2153C7.68621 18.8953 7.68997 18.4971 7.70004 18.1848ZM8.88012 18.38H8.89012V18.39H9.04012C9.05557 18.39 9.0742 18.3913 9.10348 18.3935C9.10848 18.3938 9.11378 18.3942 9.11943 18.3946C9.1554 18.3972 9.19966 18.4 9.25012 18.4H14.7701C14.879 18.4 14.9617 18.3892 15.0165 18.3755L15.1301 18.3471V18.23V18.2298V18.2296V18.2295V18.2293V18.2291V18.2289V18.2288V18.2286V18.2284V18.2282V18.228V18.2279V18.2277V18.2275V18.2273V18.2271V18.227V18.2268V18.2266V18.2264V18.2262V18.2261V18.2259V18.2257V18.2255V18.2253V18.2252V18.225V18.2248V18.2246V18.2244V18.2242V18.2241V18.2239V18.2237V18.2235V18.2233V18.2232V18.223V18.2228V18.2226V18.2224V18.2222V18.222V18.2219V18.2217V18.2215V18.2213V18.2211V18.2209V18.2207V18.2206V18.2204V18.2202V18.22V18.2198V18.2196V18.2194V18.2192V18.2191V18.2189V18.2187V18.2185V18.2183V18.2181V18.2179V18.2177V18.2176V18.2174V18.2172V18.217V18.2168V18.2166V18.2164V18.2162V18.216V18.2158V18.2157V18.2155V18.2153V18.2151V18.2149V18.2147V18.2145V18.2143V18.2141V18.2139V18.2137V18.2135V18.2133V18.2132V18.213V18.2128V18.2126V18.2124V18.2122V18.212V18.2118V18.2116V18.2114V18.2112V18.211V18.2108V18.2106V18.2104V18.2102V18.2101V18.2099V18.2097V18.2095V18.2093V18.2091V18.2089V18.2087V18.2085V18.2083V18.2081V18.2079V18.2077V18.2075V18.2073V18.2071V18.2069V18.2067V18.2065V18.2063V18.2061V18.2059V18.2057V18.2055V18.2053V18.2051V18.2049V18.2047V18.2045V18.2043V18.2041V18.2039V18.2037V18.2035V18.2033V18.2031V18.2029V18.2027V18.2025V18.2023V18.2021V18.2019V18.2017V18.2015V18.2013V18.2011V18.2009V18.2007V18.2005V18.2003V18.2001V18.1999V18.1997V18.1995V18.1993V18.1991V18.1989V18.1987V18.1985V18.1983V18.1981V18.1979V18.1977V18.1975V18.1973V18.1971V18.1969V18.1967V18.1965V18.1963V18.1961V18.1959V18.1957V18.1955V18.1953V18.1951V18.1949V18.1947V18.1945V18.1943V18.1941V18.1939V18.1937V18.1935V18.1933V18.1931V18.1929V18.1927V18.1925V18.1923V18.1921V18.1919V18.1916V18.1914V18.1912V18.191V18.1908V18.1906V18.1904V18.1902V18.19V18.1898V18.1896V18.1894V18.1892V18.189V18.1888V18.1886V18.1884V18.1882V18.188V18.1878V18.1876V18.1874V18.1872V18.187V18.1867V18.1865V18.1863V18.1861V18.1859V18.1857V18.1855V18.1853V18.1851V18.1849V18.1847V18.1845V18.1843V18.1841V18.1839V18.1837V18.1835V18.1833V18.1831V18.1829V18.1827V18.1824V18.1822V18.182V18.1818V18.1816V18.1814V18.1812V18.181V18.1808V18.1806V18.1804V18.1802V18.18V18.1798V18.1796V18.1794V18.1792V18.179V18.1788V18.1786V18.1783V18.1781V18.1779V18.1777V18.1775V18.1773V18.1771V18.1769V18.1767V18.1765V18.1763V18.1761V18.1759V18.1757V18.1755V18.1753V18.1751V18.1749V18.1747V18.1745V18.1742V18.174V18.1738V18.1736V18.1734V18.1732V18.173V18.1728V18.1726V18.1724V18.1722V18.172V18.1718V18.1716V18.1714V18.1712V18.171V18.1708V18.1706V18.1704V18.1702V18.17V18.1698V18.1695V18.1693V18.1691V18.1689V18.1687V18.1685V18.1683V18.1681V18.1679V18.1677V18.1675V18.1673V18.1671V18.1669V18.1667V18.1665V18.1663V18.1661V18.1659V18.1657V18.1655V18.1653V18.1651V18.1649V18.1647V18.1645V18.1643V18.1641V18.1639V18.1637V18.1635V18.1633V18.163V18.1628V18.1626V18.1624V18.1622V18.162V18.1618V18.1616V18.1614V18.1612V18.161V18.1608V18.1606V18.1604V18.1602V18.16V18.1598V18.1596V18.1594V18.1592V18.159V18.1588V18.1586V18.1584V18.1582V18.158V18.1578V18.1576V18.1574V18.1572V18.157V18.1568V18.1566V18.1564V18.1562V18.156V18.1558V18.1556V18.1554V18.1552V18.155V18.1548V18.1546V18.1544V18.1542V18.154V18.1539V18.1537V18.1535V18.1533V18.1531V18.1529V18.1527V18.1525V18.1523V18.1521V18.1519V18.1517V18.1515V18.1513V18.1511V18.1509V18.1507V18.1505V18.1503V18.1501V18.1499V18.1497V18.1495V18.1493V18.1491V18.1489V18.1488V18.1486V18.1484V18.1482V18.148V18.1478V18.1476V18.1474V18.1472V18.147V18.1468V18.1466V18.1464V18.1462V18.146V18.1459V18.1457V18.1455V18.1453V18.1451V18.1449V18.1447V18.1445V18.1443V18.1441V18.1439V18.1438V18.1436V18.1434V18.1432V18.143V18.1428V18.1426V18.1424V18.1422V18.142V18.1419V18.1417V18.1415V18.1413V18.1411V18.1409V18.1407V18.1405V18.1404V18.1402V18.14V18.1398V18.1396V18.1394V18.1392V18.139V18.1389V18.1387V18.1385V18.1383V18.1381V18.1379V18.1377V18.1376V18.1374V18.1372V18.137V18.1368V18.1366V18.1365V18.1363V18.1361V18.1359V18.1357V18.1355V18.1354V18.1352V18.135V18.1348V18.1346V18.1344V18.1343V18.1341V18.1339V18.1337V18.1335V18.1334V18.1332V18.133V18.1328V18.1326V18.1325V18.1323V18.1321V18.1319V18.1318V18.1316V18.1314V18.1312V18.131V18.1309V18.1307V18.1305V18.1303V18.1302V18.13V16.87C15.1301 16.6615 15.2434 16.4614 15.4164 16.3591L15.4164 16.3591L15.4177 16.3583C18.4282 14.5378 20.4371 10.3689 18.5244 6.53312C17.5836 4.64141 15.7654 3.24298 13.6624 2.7835C11.4392 2.29398 9.16241 2.81385 7.42599 4.21319C5.69065 5.61168 4.70012 7.68463 4.70012 9.90999C4.70012 12.7572 6.66174 15.1997 8.59239 16.3683C8.77674 16.4806 8.88012 16.6715 8.88012 16.88V18.23V18.38Z" fill="#292D32" stroke="black" stroke-width="0.3"/>
<path d="M15.6586 21.4143L15.6586 21.4143L15.66 21.4146C15.9774 21.5019 16.1639 21.8374 16.0751 22.1602L16.0748 22.1616C16.0032 22.432 15.7657 22.6 15.4998 22.6C15.4443 22.6 15.3882 22.5921 15.331 22.5758C13.1443 21.9481 10.846 21.9481 8.65919 22.5756C8.3393 22.6631 8.01033 22.4799 7.91344 22.1569C7.8191 21.8424 8.00584 21.5123 8.33193 21.414C10.7247 20.7319 13.2659 20.732 15.6586 21.4143Z" fill="#292D32" stroke="black" stroke-width="0.3"/>
</svg>
