<svg width="24" height="24" viewBox="0 0 24 24" fill="none" xmlns="http://www.w3.org/2000/svg">
<path d="M12.0598 8.44C10.1098 8.44 8.52979 6.86 8.52979 4.91C8.52979 2.96 10.1098 1.38 12.0598 1.38C14.0098 1.38 15.5898 2.96 15.5898 4.91C15.5898 6.86 13.9998 8.44 12.0598 8.44ZM12.0598 2.89C10.9398 2.89 10.0298 3.8 10.0298 4.92C10.0298 6.04 10.9398 6.95 12.0598 6.95C13.1798 6.95 14.0898 6.04 14.0898 4.92C14.0898 3.8 13.1698 2.89 12.0598 2.89Z" fill="#292D32" stroke="black" stroke-width="0.3"/>
<path d="M4.83005 20.67C2.88005 20.67 1.30005 19.09 1.30005 17.14C1.30005 15.2 2.88005 13.61 4.83005 13.61C6.78005 13.61 8.36005 15.19 8.36005 17.14C8.36005 19.08 6.78005 20.67 4.83005 20.67ZM4.83005 15.11C3.71005 15.11 2.80005 16.02 2.80005 17.14C2.80005 18.26 3.71005 19.17 4.83005 19.17C5.95005 19.17 6.86005 18.26 6.86005 17.14C6.86005 16.02 5.95005 15.11 4.83005 15.11Z" fill="#292D32" stroke="black" stroke-width="0.3"/>
<path d="M19.1701 20.67C17.2201 20.67 15.6401 19.09 15.6401 17.14C15.6401 15.2 17.2201 13.61 19.1701 13.61C21.1201 13.61 22.7001 15.19 22.7001 17.14C22.6901 19.08 21.1101 20.67 19.1701 20.67ZM19.1701 15.11C18.0501 15.11 17.1401 16.02 17.1401 17.14C17.1401 18.26 18.0501 19.17 19.1701 19.17C20.2901 19.17 21.2001 18.26 21.2001 17.14C21.1901 16.02 20.2901 15.11 19.1701 15.11Z" fill="#292D32" stroke="black" stroke-width="0.3"/>
</svg>
