<svg width="24" height="24" viewBox="0 0 24 24" fill="none" xmlns="http://www.w3.org/2000/svg">
<path d="M8.49854 2.18109L8.49861 2.18104C10.1534 0.893983 12.7916 0.832961 14.5075 2.03814L20.6872 6.36795L8.49854 2.18109ZM8.49854 2.18109L3.10861 6.38104C2.55386 6.81251 2.06519 7.46332 1.71524 8.17589C1.36531 8.88844 1.15 9.67107 1.15 10.37V17.78C1.15 20.5749 3.41451 22.85 6.21 22.85H17.79M8.49854 2.18109L17.79 22.85M17.79 22.85C20.5854 22.85 22.85 20.5751 22.85 17.79V10.51C22.85 9.76519 22.6117 8.94183 22.2249 8.20118M17.79 22.85L22.2249 8.20118M22.2249 8.20118C21.8381 7.4606 21.2985 6.79437 20.6874 6.36808L22.2249 8.20118ZM9.54146 3.51885L9.54149 3.51883C10.066 3.10981 10.7863 2.89209 11.5184 2.8762C12.2505 2.86031 12.9834 3.04647 13.5326 3.43183L13.5326 3.43187L19.7126 7.76188L19.7136 7.76253C20.0906 8.02027 20.451 8.47274 20.7176 8.98372C20.9841 9.49462 21.15 10.051 21.15 10.51V17.79C21.15 19.6447 19.6448 21.15 17.79 21.15H6.21C4.3556 21.15 2.85 19.6351 2.85 17.78V10.37C2.85 9.94033 3.00133 9.41329 3.24346 8.92166C3.48547 8.43026 3.81211 7.9866 4.1517 7.71867C4.15178 7.71861 4.15185 7.71855 4.15193 7.71849L9.54146 3.51885Z" fill="#292D32" stroke="#292D32" stroke-width="0.2"/>
<path d="M11.15 18C11.15 18.4652 11.5348 18.85 12 18.85C12.4652 18.85 12.85 18.4652 12.85 18V15C12.85 14.5348 12.4652 14.15 12 14.15C11.5348 14.15 11.15 14.5348 11.15 15V18Z" fill="#292D32" stroke="#292D32" stroke-width="0.2"/>
</svg>
