<svg width="24" height="24" viewBox="0 0 24 24" fill="none" xmlns="http://www.w3.org/2000/svg">
<path d="M20.6363 19.1331L20.6361 19.1332C19.1702 19.701 17.3681 19.1715 16.1559 17.8271C16.1559 17.827 16.1558 17.827 16.1557 17.8269L12 13.2684L7.84427 17.8269C7.84422 17.827 7.84416 17.827 7.8441 17.8271C6.63199 19.1715 4.82985 19.701 3.36392 19.1332C1.94325 18.5836 1.15 17.1565 1.15 15.2399L1.15 8.75993C1.15 6.84299 1.95352 5.41631 3.36369 4.86676L3.36388 4.86668C4.8298 4.2989 6.63195 4.82837 7.84407 6.17275C7.84414 6.17283 7.84421 6.1729 7.84427 6.17297L11.9999 10.7314L16.156 6.16269L20.6363 19.1331ZM20.6363 19.1331C22.0465 18.5836 22.85 17.1569 22.85 15.2399V8.75993C22.85 6.84277 22.0464 5.41664 20.6369 4.85699L20.6361 4.85668M20.6363 19.1331L20.6361 4.85668M20.6361 4.85668C19.1698 4.28874 17.3678 4.82875 16.156 6.16264L20.6361 4.85668ZM20.05 17.6399C20.82 17.3399 21.25 16.4899 21.25 15.2399V8.75993C21.25 7.50993 20.83 6.65993 20.05 6.35993L20.0138 17.5467M20.05 17.6399L20.014 17.5466C20.014 17.5467 20.0139 17.5467 20.0138 17.5467M20.05 17.6399C19.22 17.9599 18.1 17.5899 17.33 16.7499L20.05 17.6399ZM20.0138 17.5467C20.7271 17.2687 21.15 16.4725 21.15 15.2399V8.75993C21.15 7.52655 20.7366 6.73117 20.0141 6.45327L20.014 6.45324C19.2341 6.15256 18.1557 6.4874 17.4041 7.31707L17.404 7.31722L13.1452 11.9999L17.4037 16.6824C17.4038 16.6824 17.4039 16.6825 17.4039 16.6826C18.1561 17.503 19.2345 17.847 20.0138 17.5467ZM3.98597 17.5466L3.9859 17.5466C3.26336 17.2687 2.85 16.4733 2.85 15.2399L2.85 8.75993C2.85 7.5274 3.27287 6.73117 3.98614 6.45318C4.76551 6.1528 5.84398 6.4969 6.59616 7.31737C6.5962 7.31742 6.59624 7.31746 6.59628 7.31751L10.8548 11.9999L6.59602 16.6827L6.59589 16.6828C5.8443 17.5125 4.76587 17.8473 3.98597 17.5466Z" fill="#292D32" stroke="#292D32" stroke-width="0.2"/>
</svg>
