<svg width="24" height="24" viewBox="0 0 24 24" fill="none" xmlns="http://www.w3.org/2000/svg">
<path d="M4.65 12C4.65 16.0552 7.94477 19.35 12 19.35C16.0552 19.35 19.35 16.0552 19.35 12C19.35 7.94477 16.0552 4.65 12 4.65C7.94477 4.65 4.65 7.94477 4.65 12Z" fill="#292D32" stroke="#292D32" stroke-width="0.2"/>
<path d="M18.3593 19.9207L18.3593 19.9207L18.3611 19.9225C18.5791 20.1296 18.8535 20.24 19.14 20.24C19.4261 20.24 19.7016 20.1298 19.9107 19.9207C20.3398 19.4917 20.3398 18.7983 19.9107 18.3693L19.7807 18.2393C19.3517 17.8102 18.6583 17.8102 18.2293 18.2393C17.8002 18.6683 17.8002 19.3617 18.2293 19.7907L18.3593 19.9207ZM4.07929 19.9207L4.08113 19.9225C4.29908 20.1296 4.57351 20.24 4.86 20.24C5.13553 20.24 5.42127 20.1302 5.63071 19.9207L5.76071 19.7907C6.18976 19.3617 6.18976 18.6683 5.76071 18.2393C5.33166 17.8102 4.63834 17.8102 4.20929 18.2393L4.07929 18.3693C3.65024 18.7983 3.65024 19.4917 4.07929 19.9207ZM18.2293 5.77071L18.2293 5.77073L18.2311 5.7725C18.4491 5.97956 18.7235 6.09 19.01 6.09C19.2961 6.09 19.5716 5.97978 19.7807 5.77071L19.9107 5.64071C20.3398 5.21166 20.3398 4.51834 19.9107 4.08929C19.4817 3.66024 18.7883 3.66024 18.3593 4.08929L18.2293 4.21929C17.8002 4.64834 17.8002 5.34166 18.2293 5.77071ZM4.20672 5.76804L4.20658 5.76818L4.21113 5.7725C4.42908 5.97956 4.70351 6.09 4.99 6.09C5.26545 6.09 5.55175 5.98017 5.76161 5.75981C6.18976 5.33069 6.18946 4.63804 5.76071 4.20929L5.63071 4.07929C5.20166 3.65024 4.50834 3.65024 4.07929 4.07929C3.65068 4.50789 3.65024 5.20021 4.07795 5.62937L4.20672 5.76804ZM10.9 22C10.9 22.6105 11.4002 23.06 12 23.06C12.6102 23.06 13.1 22.5201 13.1 21.92C13.1 21.3148 12.6052 20.82 12 20.82C11.3948 20.82 10.9 21.3148 10.9 21.92V22ZM21.92 13.1H22C22.6105 13.1 23.06 12.5998 23.06 12C23.06 11.3898 22.5201 10.9 21.92 10.9C21.3148 10.9 20.82 11.3948 20.82 12C20.82 12.6052 21.3148 13.1 21.92 13.1ZM2 13.1H2.08C2.6905 13.1 3.14 12.5998 3.14 12C3.14 11.3898 2.6001 10.9 2 10.9C1.39477 10.9 0.9 11.3948 0.9 12C0.9 12.6052 1.39477 13.1 2 13.1ZM10.9 2.08C10.9 2.6905 11.4002 3.14 12 3.14C12.6102 3.14 13.1 2.6001 13.1 2C13.1 1.39477 12.6052 0.9 12 0.9C11.3948 0.9 10.9 1.39477 10.9 2V2.08Z" fill="#292D32" stroke="#292D32" stroke-width="0.2"/>
</svg>
