<svg width="24" height="24" viewBox="0 0 24 24" fill="none" xmlns="http://www.w3.org/2000/svg">
<path d="M8.83053 15.6804C8.3555 15.7257 8.01528 16.1445 8.06046 16.6094C8.24699 18.5856 8.88165 20.0324 10.0455 20.9824C11.2072 21.9307 12.8791 22.37 15.11 22.37H15.24C17.7065 22.37 19.491 21.8429 20.657 20.6769C21.8229 19.511 22.35 17.7265 22.35 15.26V8.73998C22.35 6.27348 21.8229 4.48898 20.657 3.32302C19.491 2.15706 17.7065 1.62998 15.24 1.62998H15.11C12.864 1.62998 11.1818 2.07682 10.0175 3.04044C8.8511 4.00583 8.22175 5.47538 8.05038 7.48147L8.05037 7.48147L8.05028 7.48268C8.01648 7.94457 8.35434 8.36488 8.83169 8.39964C9.3097 8.44453 9.70333 8.09084 9.75928 7.63209L9.75935 7.63209L9.75966 7.62839C9.89362 6.04076 10.3259 4.97575 11.1627 4.30291C12.003 3.62729 13.2717 3.32998 15.12 3.32998H15.25C17.2781 3.32998 18.6209 3.68982 19.4606 4.52944C20.3002 5.36907 20.66 6.71191 20.66 8.73998V15.26C20.66 17.2881 20.3002 18.6309 19.4606 19.4705C18.6209 20.3101 17.2781 20.67 15.25 20.67H15.12C13.2816 20.67 12.0175 20.3777 11.177 19.714C10.3402 19.0533 9.90341 18.008 9.75959 16.4508L9.75954 16.4503C9.71424 15.9859 9.28594 15.6352 8.83053 15.6804ZM8.83053 15.6804L8.84002 15.78L8.83006 15.6805C8.83022 15.6805 8.83038 15.6804 8.83053 15.6804Z" fill="#292D32" stroke="#292D32" stroke-width="0.2"/>
<path d="M3.62 12.85H15C15.4652 12.85 15.85 12.4652 15.85 12C15.85 11.5348 15.4652 11.15 15 11.15H3.62C3.15477 11.15 2.77 11.5348 2.77 12C2.77 12.4652 3.15477 12.85 3.62 12.85Z" fill="#292D32" stroke="#292D32" stroke-width="0.2"/>
<path d="M5.24923 15.9507C5.41897 16.1205 5.63485 16.2 5.84994 16.2C6.06235 16.2 6.28999 16.1222 6.45187 15.9495C6.7797 15.6203 6.7793 15.078 6.45065 14.7493L3.70136 12L6.45065 9.25074C6.7797 8.92169 6.7797 8.37837 6.45065 8.04932C6.1216 7.72026 5.57828 7.72026 5.24923 8.04932L1.89923 11.3993C1.57018 11.7284 1.57018 12.2717 1.89923 12.6007L5.24923 15.9507Z" fill="#292D32" stroke="#292D32" stroke-width="0.2"/>
</svg>
