<svg width="24" height="24" viewBox="0 0 24 24" fill="none" xmlns="http://www.w3.org/2000/svg">
<path d="M6.53 15.06C4.58 15.06 3 13.48 3 11.53C3 9.58 4.58 8 6.53 8C8.48 8 10.06 9.58 10.06 11.53C10.06 13.48 8.47 15.06 6.53 15.06ZM6.53 9.51C5.41 9.51 4.5 10.42 4.5 11.54C4.5 12.66 5.41 13.57 6.53 13.57C7.65 13.57 8.56 12.66 8.56 11.54C8.56 10.42 7.64 9.51 6.53 9.51Z" fill="#292D32" stroke="black" stroke-width="0.3"/>
<path d="M17.53 15.06C15.58 15.06 14 13.48 14 11.53C14 9.59 15.58 8 17.53 8C19.48 8 21.06 9.58 21.06 11.53C21.05 13.47 19.47 15.06 17.53 15.06ZM17.53 9.5C16.41 9.5 15.5 10.41 15.5 11.53C15.5 12.65 16.41 13.56 17.53 13.56C18.65 13.56 19.56 12.65 19.56 11.53C19.55 10.41 18.65 9.5 17.53 9.5Z" fill="#292D32" stroke="black" stroke-width="0.3"/>
</svg>
