<svg width="24" height="24" viewBox="0 0 24 24" fill="none" xmlns="http://www.w3.org/2000/svg">
<path d="M7.362 22.4564L7.3621 22.4562L7.35229 22.4518C7.10225 22.3399 6.99402 22.041 7.10736 21.7943L7.10747 21.7941L11.5975 11.9941L11.5975 11.9941L11.5984 11.9921C11.7103 11.742 12.0091 11.6338 12.2558 11.7471L12.2581 11.7482C12.5081 11.86 12.6164 12.1589 12.503 12.4056L12.5029 12.4058L8.01344 22.2047C8.01337 22.2049 8.01329 22.205 8.01322 22.2052C7.9249 22.3949 7.74461 22.5 7.56019 22.5C7.49161 22.5 7.42122 22.486 7.362 22.4564Z" fill="#2F3643" stroke="white" stroke-width="0.5"/>
<path d="M15.9898 22.2115L15.9899 22.2115L15.9878 22.2068L11.5482 12.4079C11.5482 12.4077 11.5481 12.4076 11.548 12.4074C11.4346 12.1532 11.5486 11.8601 11.7944 11.7471C12.037 11.6357 12.3393 11.7479 12.4526 11.9938C12.4527 11.994 12.4528 11.9942 12.4529 11.9944L16.8918 21.7921C16.8919 21.7922 16.892 21.7924 16.892 21.7925C17.0055 22.0467 16.8915 22.3399 16.6457 22.4528L16.6456 22.4527L16.6382 22.4564C16.5776 22.4867 16.5168 22.5 16.44 22.5C16.2421 22.5 16.0674 22.3925 15.9898 22.2115Z" fill="#2F3643" stroke="white" stroke-width="0.5"/>
<path d="M4.02792 15.9014L4.02734 15.9005L2.89792 14.2213C2.89783 14.2212 2.89774 14.2211 2.89764 14.2209C2.67487 13.8865 2.59779 13.4939 2.67525 13.098C2.75245 12.7034 2.97404 12.3711 3.30858 12.148L3.30882 12.1479L7.25882 9.50786L7.25883 9.50786L7.25998 9.50708C7.485 9.35486 7.79783 9.41427 7.95098 9.64733L7.95097 9.64733L7.95228 9.64928L10.1923 12.9893L10.1928 12.9901C10.3451 13.2151 10.2857 13.528 10.0526 13.6811L10.0526 13.6811L10.051 13.6822L6.10199 16.3215C5.85247 16.4847 5.56038 16.57 5.2799 16.57C4.79889 16.57 4.31905 16.3381 4.02792 15.9014ZM7.53746 10.8107L7.39837 10.6035L7.19094 10.7422L3.87094 12.9622L3.87083 12.9621L3.86286 12.9679C3.6595 13.1158 3.56757 13.4122 3.73189 13.6587L3.73246 13.6595L4.86246 15.3396L4.86232 15.3397L4.86772 15.3471C5.01565 15.5505 5.31214 15.6423 5.55858 15.478L5.55887 15.4778L8.87886 13.2578L9.08708 13.1186L8.94746 12.9106L7.53746 10.8107Z" fill="#2F3643" stroke="white" stroke-width="0.5"/>
<path d="M9.52823 13.7713L9.5279 13.7708L6.9679 9.95084L6.96729 9.94994C6.81507 9.72491 6.87447 9.41208 7.10751 9.25893L7.10752 9.25894L7.1093 9.25775L11.8875 6.05896C12.0053 5.98328 12.1378 5.95919 12.2587 5.98466L12.2612 5.98516C12.3995 6.01282 12.5094 6.08623 12.5803 6.19583L12.5803 6.19585L12.5825 6.19919L15.1425 10.0192L15.1431 10.0201C15.2954 10.2451 15.236 10.558 15.0029 10.7111L15.0029 10.7111L15.0011 10.7123L10.2255 13.9094C10.1364 13.9632 10.0334 13.99 9.94022 13.99C9.78025 13.99 9.61992 13.9089 9.52823 13.7713ZM8.28086 9.67247L8.07361 9.81161L8.21245 10.0191L9.93245 12.5891L10.0714 12.7967L10.2792 12.6579L13.8092 10.2978L14.0167 10.1591L13.8782 9.95134L12.1582 7.37135L12.0191 7.16266L11.8109 7.30247L8.28086 9.67247Z" fill="#2F3643" stroke="white" stroke-width="0.5"/>
<path d="M14.6179 11.0509L14.6181 11.0513C14.7098 11.1888 14.8701 11.2699 15.0301 11.2699C15.1295 11.2699 15.2184 11.2454 15.3148 11.1765L15.3208 11.1722L15.3209 11.1723L20.9709 7.38232L20.972 7.38157C21.7755 6.84881 21.9859 5.76513 21.4526 4.9693L14.6179 11.0509ZM14.6179 11.0509L11.419 6.27263C11.3434 6.15489 11.3193 6.02237 11.3448 5.90144C11.3729 5.76769 11.4491 5.64896 11.5559 5.57982L11.556 5.57985L11.5592 5.57766L17.2192 1.78765L17.2192 1.78766L17.221 1.78648C17.6034 1.52573 18.0651 1.4374 18.5229 1.52544C18.9763 1.61263 19.3695 1.8738 19.6331 2.26011C19.6333 2.26033 19.6334 2.26055 19.6336 2.26076L21.4525 4.96912L14.6179 11.0509ZM12.7408 5.99238L12.5336 6.13146L12.6723 6.33889L15.0323 9.86889L15.1714 10.0769L15.3793 9.93764L20.4081 6.56839C20.7523 6.34282 20.8475 5.87495 20.6053 5.53706L18.7892 2.83285C18.6788 2.66116 18.5093 2.55856 18.3263 2.51635C18.1217 2.46913 17.9238 2.51851 17.7659 2.61901L17.7659 2.61894L17.7608 2.62236L12.7408 5.99238Z" fill="#2F3643" stroke="white" stroke-width="0.5"/>
</svg>
