<svg width="24" height="24" viewBox="0 0 24 24" fill="none" xmlns="http://www.w3.org/2000/svg">
<path d="M21 20.25H11C10.59 20.25 10.25 19.91 10.25 19.5C10.25 19.09 10.59 18.75 11 18.75H21C21.41 18.75 21.75 19.09 21.75 19.5C21.75 19.91 21.41 20.25 21 20.25Z" fill="#292D32" stroke="black" stroke-width="0.3"/>
<path d="M21 13.25H11C10.59 13.25 10.25 12.91 10.25 12.5C10.25 12.09 10.59 11.75 11 11.75H21C21.41 11.75 21.75 12.09 21.75 12.5C21.75 12.91 21.41 13.25 21 13.25Z" fill="#292D32" stroke="black" stroke-width="0.3"/>
<path d="M21 6.25H11C10.59 6.25 10.25 5.91 10.25 5.5C10.25 5.09 10.59 4.75 11 4.75H21C21.41 4.75 21.75 5.09 21.75 5.5C21.75 5.91 21.41 6.25 21 6.25Z" fill="#292D32" stroke="black" stroke-width="0.3"/>
<path d="M3.99994 7.25C3.80994 7.25 3.61994 7.18 3.46994 7.03L2.46994 6.03C2.17994 5.74 2.17994 5.26 2.46994 4.97C2.75994 4.68 3.23994 4.68 3.52994 4.97L3.99994 5.44L6.46994 2.97C6.75994 2.68 7.23994 2.68 7.52994 2.97C7.81994 3.26 7.81994 3.74 7.52994 4.03L4.52994 7.03C4.37994 7.18 4.18994 7.25 3.99994 7.25Z" fill="#292D32" stroke="black" stroke-width="0.3"/>
<path d="M7.18658 14.8759C6.89667 15.1658 6.41584 15.1658 6.12592 14.8759L2.59039 11.3403C2.30047 11.0504 2.30047 10.5696 2.59039 10.2797C2.8803 9.98975 3.36114 9.98975 3.65105 10.2797L7.18658 13.8152C7.4765 14.1051 7.4765 14.5859 7.18658 14.8759Z" fill="#292D32" stroke="black" stroke-width="0.3"/>
<path d="M7.12652 11.3448L3.59099 14.8803C3.30108 15.1702 2.82024 15.1702 2.53033 14.8803C2.24042 14.5904 2.24042 14.1096 2.53033 13.8197L6.06586 10.2841C6.35578 9.99423 6.83661 9.99423 7.12652 10.2841C7.41644 10.5741 7.41644 11.0549 7.12652 11.3448Z" fill="#292D32" stroke="black" stroke-width="0.3"/>
<path d="M7.18658 21.6659C6.89667 21.9558 6.41584 21.9558 6.12592 21.6659L2.59039 18.1303C2.30047 17.8404 2.30047 17.3596 2.59039 17.0697C2.8803 16.7798 3.36114 16.7798 3.65105 17.0697L7.18658 20.6052C7.4765 20.8951 7.4765 21.376 7.18658 21.6659Z" fill="#292D32" stroke="black" stroke-width="0.3"/>
<path d="M7.12652 18.0948L3.59099 21.6303C3.30108 21.9202 2.82024 21.9202 2.53033 21.6303C2.24042 21.3404 2.24042 20.8596 2.53033 20.5697L6.06586 17.0341C6.35578 16.7442 6.83661 16.7442 7.12652 17.0341C7.41644 17.3241 7.41644 17.8049 7.12652 18.0948Z" fill="#292D32" stroke="black" stroke-width="0.3"/>
</svg>
