<svg width="24" height="24" viewBox="0 0 24 24" fill="none" xmlns="http://www.w3.org/2000/svg">
<path d="M5.92111 9.93529L5.92143 9.93591C6.24375 10.5591 6.94554 10.91 7.83022 10.91H16.1703C17.0558 10.91 17.7555 10.5587 18.0978 9.93828L18.0979 9.9383L18.0994 9.93529C18.4217 9.3014 18.2854 8.53096 17.7714 7.82154C17.7713 7.82146 17.7713 7.82137 17.7712 7.82129L13.6021 1.99257C13.602 1.99244 13.6019 1.99231 13.6018 1.99218C12.8124 0.866451 11.1987 0.865314 10.4185 1.98229C10.4184 1.98243 10.4183 1.98258 10.4182 1.98273L6.24925 7.82129C6.24918 7.82138 6.24912 7.82147 6.24905 7.82156C5.73509 8.53097 5.5988 9.30141 5.92111 9.93529L5.92111 9.93529ZM7.63058 8.80949L7.63059 8.8095L7.63166 8.80801L11.8009 2.95903C11.8419 2.90452 11.8825 2.86278 11.9196 2.83547C11.9577 2.80739 11.9846 2.79997 12.0002 2.79997C12.0398 2.79997 12.1131 2.8342 12.2202 2.96998L16.3885 8.80752C16.3885 8.80761 16.3886 8.80771 16.3887 8.80781C16.5033 8.9708 16.5456 9.08685 16.5612 9.14862C16.5482 9.15427 16.5317 9.16065 16.5112 9.16715C16.4433 9.18871 16.3361 9.20997 16.1802 9.20997H7.84023C7.67785 9.20997 7.56729 9.19084 7.49896 9.17131C7.47951 9.16576 7.46384 9.16027 7.45158 9.15535C7.45436 9.14134 7.45892 9.12356 7.4662 9.10204C7.48854 9.03607 7.53561 8.93771 7.63058 8.80949Z" fill="#292D32" stroke="black" stroke-width="0.2"/>
<path d="M15.4816 9.5621L15.4816 9.5621L15.4807 9.56074C15.3223 9.3458 15.0627 9.21006 14.7902 9.21006H9.22015C8.95018 9.21006 8.68861 9.33386 8.52849 9.56233C8.5284 9.56246 8.52831 9.56259 8.52822 9.56272L4.53915 15.1614C4.53908 15.1615 4.53901 15.1616 4.53893 15.1617C4.10941 15.755 3.94655 16.2779 3.92156 16.7105C3.8966 17.1428 4.00965 17.478 4.12114 17.6957C4.2325 17.9131 4.4384 18.2028 4.80352 18.4379C5.16909 18.6733 5.68839 18.8501 6.42017 18.8501H17.5901C18.3219 18.8501 18.8389 18.6733 19.2021 18.4377C19.5648 18.2024 19.768 17.9126 19.8792 17.6957C19.9904 17.4785 20.1061 17.1436 20.0838 16.7124C20.0614 16.2807 19.901 15.76 19.4713 15.1716C19.4711 15.1714 19.471 15.1712 19.4709 15.1711L15.4816 9.5621ZM5.91158 16.1581L9.65881 10.9001H14.3386L18.0787 16.158L18.0793 16.1589C18.2345 16.3724 18.318 16.5467 18.3552 16.6785C18.3932 16.8134 18.3794 16.8905 18.3621 16.9227L18.362 16.9226L18.3594 16.9282C18.3455 16.9583 18.2922 17.0153 18.1599 17.0652C18.0315 17.1137 17.8416 17.1501 17.5801 17.1501H6.41016C6.14878 17.1501 5.96148 17.1137 5.83447 17.0653C5.70849 17.0174 5.65038 16.9613 5.62972 16.9254C5.61404 16.8886 5.60335 16.8084 5.63911 16.6777C5.67514 16.5459 5.75616 16.3718 5.91101 16.1589L5.91102 16.1589L5.91158 16.1581Z" fill="#292D32" stroke="black" stroke-width="0.2"/>
<path d="M11.15 22C11.15 22.4652 11.5348 22.85 12 22.85C12.4652 22.85 12.85 22.4652 12.85 22V18C12.85 17.5348 12.4652 17.15 12 17.15C11.5348 17.15 11.15 17.5348 11.15 18V22Z" fill="#292D32" stroke="black" stroke-width="0.2"/>
</svg>
