<svg width="24" height="24" viewBox="0 0 24 24" fill="none" xmlns="http://www.w3.org/2000/svg">
<path d="M8 13.05H15C15.4652 13.05 15.85 12.6652 15.85 12.2C15.85 11.7348 15.4652 11.35 15 11.35H8C7.53477 11.35 7.15 11.7348 7.15 12.2C7.15 12.6652 7.53477 13.05 8 13.05Z" fill="#292D32" stroke="#292D32" stroke-width="0.2"/>
<path d="M8 17.05H12.38C12.8452 17.05 13.23 16.6652 13.23 16.2C13.23 15.7348 12.8452 15.35 12.38 15.35H8C7.53477 15.35 7.15 15.7348 7.15 16.2C7.15 16.6652 7.53477 17.05 8 17.05Z" fill="#292D32" stroke="#292D32" stroke-width="0.2"/>
<path d="M10 6.85H14C15.3984 6.85 16.1246 6.39298 16.4918 5.78681C16.85 5.19537 16.85 4.48438 16.85 4.00852V4C16.85 2.60165 16.393 1.87539 15.7868 1.50822C15.1954 1.14997 14.4844 1.14999 14.0085 1.15L14 1.15H10L9.99148 1.15C9.51562 1.14999 8.80463 1.14997 8.21319 1.50822C7.60702 1.87539 7.15 2.60165 7.15 4C7.15 5.39835 7.60702 6.12461 8.21319 6.49178C8.80463 6.85003 9.51562 6.85001 9.99148 6.85H10ZM8.85 4C8.85 3.68933 8.86632 3.46403 8.90362 3.29945C8.94062 3.13623 8.99609 3.04241 9.06752 2.98328C9.1403 2.92303 9.24317 2.88742 9.39889 2.86883C9.55525 2.85016 9.75032 2.85 10 2.85H14C14.2497 2.85 14.4448 2.85016 14.6011 2.86883C14.7568 2.88742 14.8597 2.92303 14.9325 2.98328C15.0039 3.04241 15.0594 3.13623 15.0964 3.29945C15.1337 3.46403 15.15 3.68933 15.15 4C15.15 4.24968 15.1498 4.44475 15.1312 4.60111C15.1126 4.75683 15.077 4.8597 15.0167 4.93248C14.9576 5.00391 14.8638 5.05938 14.7006 5.09638C14.536 5.13368 14.3107 5.15 14 5.15H10C9.75032 5.15 9.55525 5.14984 9.39889 5.13117C9.24317 5.11258 9.1403 5.07697 9.06752 5.01672C8.99609 4.95759 8.94062 4.86377 8.90362 4.70055C8.86632 4.53597 8.85 4.31067 8.85 4Z" fill="#292D32" stroke="#292D32" stroke-width="0.2"/>
<path d="M7.95501 3.18012L7.95483 3.18013C5.91114 3.28583 4.45142 3.83064 3.50626 4.94403C2.56339 6.05472 2.15 7.71135 2.15 9.99999V16C2.15 18.0887 2.43164 19.8081 3.4411 21.0033C4.4539 22.2024 6.17765 22.85 9 22.85H15C17.8224 22.85 19.5461 22.2024 20.5589 21.002C21.5684 19.8055 21.85 18.0836 21.85 15.99V9.98999C21.85 7.70629 21.4366 6.05219 20.4937 4.94153C19.5487 3.82824 18.0891 3.28088 16.0454 3.17014L16.0449 3.17011C15.5809 3.14748 15.1729 3.50878 15.1501 3.97512C15.1275 4.43898 15.4886 4.8469 15.9547 4.86986C17.3708 4.94967 18.4081 5.20118 19.0973 5.93114C19.7874 6.66216 20.15 7.89621 20.15 9.99999V16C20.15 17.8522 19.9648 19.1278 19.2449 19.9465C18.528 20.7616 17.2556 21.15 15 21.15H9C6.74443 21.15 5.47196 20.7616 4.75509 19.9465C4.03517 19.1278 3.85 17.8522 3.85 16V9.99999C3.85 7.89621 4.21258 6.66216 4.90271 5.93114C5.59186 5.20118 6.62919 4.94967 8.04526 4.86986C8.509 4.84703 8.87256 4.46141 8.84989 3.98524C8.82712 3.5071 8.40734 3.1575 7.95501 3.18012Z" fill="#292D32" stroke="#292D32" stroke-width="0.2"/>
</svg>
