<svg width="24" height="24" viewBox="0 0 24 24" fill="none" xmlns="http://www.w3.org/2000/svg">
<path d="M5.62003 20.7966L5.6201 20.7966C6.29635 21.186 7.06376 21.38 7.87 21.38C8.97144 21.38 10.1684 21.0232 11.3895 20.3269L11.39 20.3266L17.5599 16.7666C17.5599 16.7666 17.56 16.7666 17.56 16.7666C19.679 15.5456 20.86 13.8576 20.86 12.01C20.86 10.1621 19.6688 8.47425 17.5601 7.25345L17.56 7.25337L11.39 3.69337L11.3899 3.69334C9.27112 2.47251 7.22139 2.28951 5.62003 3.21337C4.01877 4.13717 3.15 5.998 3.15 8.43999V15.57C3.15 18.0019 4.01871 19.8728 5.62003 20.7966ZM6.46979 4.67672L6.47026 4.67644C6.88329 4.43631 7.34557 4.31999 7.87 4.31999C8.66699 4.31999 9.56969 4.60216 10.5402 5.15672C10.5403 5.15675 10.5403 5.15678 10.5404 5.15681L16.71 8.71658C18.306 9.6385 19.16 10.8017 19.16 12C19.16 13.1983 18.306 14.3615 16.71 15.2834C16.71 15.2834 16.71 15.2834 16.71 15.2834L10.54 18.8434L10.54 18.8434C8.94368 19.7655 7.50526 19.9273 6.47039 19.3236C5.43451 18.7193 4.85 17.4033 4.85 15.56V8.43999C4.85 6.59614 5.43479 5.27088 6.46979 4.67672Z" fill="#292D32" stroke="#292D32" stroke-width="0.2"/>
</svg>
