<svg width="24" height="24" viewBox="0 0 24 24" fill="none" xmlns="http://www.w3.org/2000/svg">
<path d="M14.7098 11.9201C14.6642 11.9544 14.63 11.9885 14.6006 12.018L14.5993 12.0193L14.5993 12.0193L14.5973 12.0213L13.5773 13.1013C12.7568 13.9696 11.2632 13.9696 10.4427 13.1013L9.42618 12.025C9.40422 11.997 9.38022 11.9771 9.36178 11.9626C9.35555 11.9577 9.35034 11.9537 9.34586 11.9502C9.3342 11.9412 9.3275 11.9361 9.32071 11.9293L9.3155 11.9241L9.30958 11.9197C8.99949 11.6896 8.72494 11.4946 8.37481 11.3592C8.02375 11.2235 7.60321 11.15 7 11.15C4.60966 11.15 3.38046 11.7845 2.76003 12.7341C2.14997 13.6678 2.14999 14.8808 2.15 15.9837L2.15 16V17L2.15 17.0164C2.14999 18.3543 2.14997 19.8172 2.88504 20.9422C3.63047 22.083 5.10967 22.85 8 22.85H16C17.9257 22.85 19.3929 22.3634 20.3806 21.3783C21.3683 20.3932 21.8599 18.9261 21.87 17.0005V17V16V15.9837C21.87 14.8808 21.87 13.6678 21.26 12.7341C20.6395 11.7845 19.4103 11.15 17.02 11.15C16.4172 11.15 15.9967 11.2209 15.6455 11.3554C15.295 11.4896 15.0204 11.6847 14.7098 11.9201ZM14.7098 11.9201C14.7097 11.9202 14.7097 11.9202 14.7096 11.9203L14.77 12L14.71 11.92C14.7099 11.92 14.7099 11.9201 14.7098 11.9201ZM14.8026 14.2588L14.8028 14.2586L15.7668 13.235C15.9788 13.0773 16.1111 12.9857 16.2738 12.9295C16.4386 12.8727 16.6422 12.85 17 12.85C18.6257 12.85 19.3902 13.1079 19.7642 13.5993C19.9521 13.8462 20.0502 14.1628 20.1 14.5637C20.1498 14.9655 20.15 15.4405 20.15 16V17C20.15 18.4786 19.8345 19.509 19.1718 20.1718C18.509 20.8345 17.4786 21.15 16 21.15H8C5.87755 21.15 4.86174 20.7708 4.36172 20.0931C4.11035 19.7525 3.98096 19.3259 3.91562 18.8075C3.85016 18.2881 3.85 17.6869 3.85 17V16C3.85 15.4405 3.85016 14.9655 3.90002 14.5637C3.94977 14.1628 4.04789 13.8462 4.23582 13.5993C4.60985 13.1079 5.37433 12.85 7 12.85C7.3578 12.85 7.56138 12.8727 7.72615 12.9295C7.8889 12.9857 8.02116 13.0773 8.23324 13.235L9.1972 14.2586L9.19741 14.2588C9.9361 15.0385 10.9323 15.47 12 15.47C13.0677 15.47 14.0639 15.0385 14.8026 14.2588Z" fill="#292D32" stroke="#292D32" stroke-width="0.2"/>
<path d="M18.15 12C18.15 12.4652 18.5348 12.85 19 12.85C19.4652 12.85 19.85 12.4652 19.85 12V6V5.98374C19.85 4.88076 19.85 3.66778 19.24 2.73405C18.6195 1.78447 17.3903 1.15 15 1.15H9C6.60966 1.15 5.38046 1.78447 4.76003 2.73405C4.14997 3.66778 4.14999 4.88076 4.15 5.98373L4.15 6V12C4.15 12.4652 4.53477 12.85 5 12.85C5.46523 12.85 5.85 12.4652 5.85 12V6C5.85 5.44053 5.85016 4.9655 5.90002 4.56372C5.94977 4.16284 6.04789 3.84623 6.23582 3.59931C6.60985 3.1079 7.37433 2.85 9 2.85H15C16.6257 2.85 17.3902 3.1079 17.7642 3.59931C17.9521 3.84623 18.0502 4.16284 18.1 4.56372C18.1498 4.9655 18.15 5.44053 18.15 6V12Z" fill="#292D32" stroke="#292D32" stroke-width="0.2"/>
<path d="M10.55 10.08H13.88C14.3561 10.08 14.73 9.69434 14.73 9.22998C14.73 8.76475 14.3453 8.37998 13.88 8.37998H10.55C10.0848 8.37998 9.70005 8.76475 9.70005 9.22998C9.70005 9.69521 10.0848 10.08 10.55 10.08Z" fill="#292D32" stroke="#292D32" stroke-width="0.2"/>
<path d="M9.71997 7.07998H14.72C15.1961 7.07998 15.57 6.69434 15.57 6.22998C15.57 5.76475 15.1852 5.37998 14.72 5.37998H9.71997C9.25474 5.37998 8.86997 5.76475 8.86997 6.22998C8.86997 6.69521 9.25474 7.07998 9.71997 7.07998Z" fill="#292D32" stroke="#292D32" stroke-width="0.2"/>
</svg>
