<svg width="24" height="24" viewBox="0 0 24 24" fill="none" xmlns="http://www.w3.org/2000/svg">
<path d="M18.6756 6.44577L6.94077 18.1806C6.45964 18.6617 5.82024 18.8202 5.53033 18.5303C5.24042 18.2404 5.39898 17.601 5.88011 17.1199L17.6149 5.38511C18.096 4.90398 18.7354 4.74541 19.0253 5.03533C19.3152 5.32524 19.1567 5.96464 18.6756 6.44577Z" fill="#292D32" stroke="black" stroke-width="0.3"/>
<path d="M20.3602 14.7519L15.752 19.3601C15.3741 19.7379 14.8204 19.8109 14.5305 19.521C14.2405 19.2311 14.3135 18.6773 14.6913 18.2994L19.2995 13.6912C19.6774 13.3134 20.2312 13.2404 20.5211 13.5303C20.811 13.8202 20.7381 14.374 20.3602 14.7519Z" fill="#292D32" stroke="black" stroke-width="0.3"/>
<path d="M15.752 13.6911L20.3602 18.2993C20.738 18.6772 20.811 19.2309 20.5211 19.5208C20.2311 19.8108 19.6774 19.7378 19.2995 19.36L14.6913 14.7518C14.3135 14.3739 14.2405 13.8201 14.5304 13.5302C14.8203 13.2403 15.3741 13.3132 15.752 13.6911Z" fill="#292D32" stroke="black" stroke-width="0.3"/>
<path d="M7.89153 8.71087C7.60161 9.00078 7.19846 9.07846 7.00221 8.88222L4.60898 6.48899C4.41274 6.29274 4.49042 5.88959 4.78033 5.59967C5.07024 5.30976 5.4734 5.23208 5.66964 5.42833L8.06287 7.82156C8.25912 8.0178 8.18144 8.42096 7.89153 8.71087Z" fill="#292D32" stroke="black" stroke-width="0.3"/>
<path d="M12.1962 4.42518L7.99143 8.62996C7.64663 8.97475 7.12029 9.02026 6.83038 8.73034C6.54047 8.44043 6.58597 7.91409 6.93077 7.5693L11.1355 3.36452C11.4803 3.01973 12.0067 2.97422 12.2966 3.26413C12.5865 3.55404 12.541 4.08039 12.1962 4.42518Z" fill="#292D32" stroke="black" stroke-width="0.3"/>
</svg>
