<svg width="32" height="32" viewBox="0 0 32 32" fill="none" xmlns="http://www.w3.org/2000/svg">
<path d="M9.98463 4.20179C10.0961 3.4739 9.59635 2.79347 8.86845 2.68202C8.14056 2.57057 7.46013 3.0703 7.34868 3.79819L6.5321 9.13132C6.42742 9.81502 6.86293 10.4653 7.53502 10.6287L13.0181 11.9621C13.7336 12.1361 14.4547 11.6971 14.6287 10.9816C14.8027 10.266 14.3637 9.54492 13.6482 9.37092L11.06 8.74152C14.6521 6.12739 19.6007 6.4014 22.7042 9.50491C26.1507 12.9514 26.1077 18.6733 22.4951 22.2859C18.8824 25.8986 13.1605 25.9416 9.71403 22.4951C9.19334 21.9744 8.34912 21.9744 7.82842 22.4951C7.30772 23.0158 7.30772 23.86 7.82842 24.3807C12.3666 28.9189 19.7777 28.7746 24.3807 24.1716C28.9837 19.5686 29.128 12.1575 24.5898 7.61929C20.5463 3.57574 14.222 3.24959 9.63542 6.48249L9.98463 4.20179Z" fill="#023047"/>
</svg>
